<svg width="128" height="142" viewBox="0 0 128 142" fill="none" xmlns="http://www.w3.org/2000/svg">
<g filter="url(#filter0_d_212_84)">
<path d="M60.2646 0C91.3388 0 116.529 25.1905 116.529 56.2646C116.529 87.3388 91.3388 112.529 60.2646 112.529C58.0719 112.529 55.9086 112.403 53.7812 112.159L33.1982 125.003C30.3247 126.796 26.546 125.146 25.9082 121.819L21.082 96.6426C10.5469 86.4174 4 72.1057 4 56.2646C4 25.1905 29.1905 4.1238e-06 60.2646 0Z" fill="url(#paint0_linear_212_84)"/>
<path d="M71.9769 67.9769L84.3781 80.3781M36.1512 52.8199C36.1512 58.3015 38.3288 63.5587 42.205 67.4348C46.0811 71.311 51.3382 73.4885 56.8199 73.4885C62.3016 73.4885 67.5587 71.311 71.4348 67.4348C75.311 63.5587 77.4885 58.3015 77.4885 52.8199C77.4885 47.3382 75.311 42.0811 71.4348 38.2049C67.5587 34.3288 62.3016 32.1512 56.8199 32.1512C51.3382 32.1512 46.0811 34.3288 42.205 38.2049C38.3288 42.0811 36.1512 47.3382 36.1512 52.8199Z" stroke="white" stroke-width="16.0756" stroke-linecap="round" stroke-linejoin="round"/>
</g>
<defs>
<filter id="filter0_d_212_84" x="0.9" y="0" width="126.729" height="141.838" filterUnits="userSpaceOnUse" color-interpolation-filters="sRGB">
<feFlood flood-opacity="0" result="BackgroundImageFix"/>
<feColorMatrix in="SourceAlpha" type="matrix" values="0 0 0 0 0 0 0 0 0 0 0 0 0 0 0 0 0 0 127 0" result="hardAlpha"/>
<feOffset dx="4" dy="9"/>
<feGaussianBlur stdDeviation="3.55"/>
<feComposite in2="hardAlpha" operator="out"/>
<feColorMatrix type="matrix" values="0 0 0 0 0 0 0 0 0 0 0 0 0 0 0 0 0 0 0.11 0"/>
<feBlend mode="normal" in2="BackgroundImageFix" result="effect1_dropShadow_212_84"/>
<feBlend mode="normal" in="SourceGraphic" in2="effect1_dropShadow_212_84" result="shape"/>
</filter>
<linearGradient id="paint0_linear_212_84" x1="92.4159" y1="12.0569" x2="23.4457" y2="112.53" gradientUnits="userSpaceOnUse">
<stop stop-color="#1DC4DE"/>
<stop offset="0.514423" stop-color="#3165FC"/>
<stop offset="1" stop-color="#3060FC"/>
</linearGradient>
</defs>
</svg>
